0
SECTION
2
HEADER
9
$INSUNITS
70
4
0
ENDSEC
0
SECTION
2
TABLES
0
TABLE
2
LTYPE
0
LTYPE
72
65
70
64
2
CONTINUOUS
3
______
73
0
40
0
0
ENDTAB
0
TABLE
2
LAYER
0
ENDTAB
0
ENDSEC
0
SECTION
2
ENTITIES
0
LINE
8
0
10
122.3862574
20
-1.8166236
11
120.5014065
21
-17.8120053
0
LINE
8
0
10
120.3277647
20
-18.4231869
11
112.6875745
21
-34.8076275
0
LINE
8
0
10
110.0297224
20
-35.7750064
11
95.6340939
21
-29.0622145
0
LINE
8
0
10
95.4185247
20
-28.9765364
11
90.9279607
21
-27.4870084
0
LINE
8
0
10
90.8159314
20
-27.4534504
11
75.0205673
21
-23.2210953
0
LINE
8
0
10
74.7287174
20
-23.165733
11
71.0917862
21
-22.7525031
0
LINE
8
0
10
71.0403094
20
-22.7473277
11
52.4114814
21
-21.1175164
0
LINE
8
0
10
51.7379378
20
-20.9365192
11
29.2029493
21
-10.3886078
0
LINE
8
0
10
-8.8
20
-10.2
11
28.3550943
21
-10.2
0
LINE
8
0
10
-10.8
20
-8.2
11
-10.8
21
59.2
0
LINE
8
0
10
-8.8
20
61.2
11
5.9958372
21
61.2
0
LINE
8
0
10
7.763413
20
62.2642246
11
8.436587
21
63.5357754
0
LINE
8
0
10
10.2041628
20
64.6
11
23.7849698
21
64.6
0
LINE
8
0
10
25.6709505
20
65.9343598
11
26.5290495
21
68.3656402
0
LINE
8
0
10
28.4150302
20
69.7
11
41.7849698
21
69.7
0
LINE
8
0
10
43.6709505
20
71.0343598
11
44.5290495
21
73.4656402
0
LINE
8
0
10
46.4150302
20
74.8
11
61.5849698
21
74.8
0
LINE
8
0
10
63.4709505
20
73.4656402
11
64.3290495
21
71.0343598
0
LINE
8
0
10
66.2150302
20
69.7
11
97.7958372
21
69.7
0
LINE
8
0
10
99.563413
20
68.6357754
11
100.236587
21
67.3642246
0
LINE
8
0
10
102.0041628
20
66.3
11
120.4
21
66.3
0
LINE
8
0
10
122.4
20
64.3
11
122.4
21
-1.5825686
0
ARC
8
0
10
118.5151491
20
-17.5779503
40
2
50
334.9999983
51
353.2794182
0
ARC
8
0
10
110.874959
20
-33.9623909
40
2
50
244.9999983
51
334.9999983
0
ARC
8
0
10
94.7888573
20
-30.8748301
40
2
50
64.9999983
51
71.6492262
0
ARC
8
0
10
90.2982934
20
-29.3853021
40
2
50
71.6492262
51
75.0000021
0
ARC
8
0
10
74.5029292
20
-25.1529471
40
2
50
75.0000021
51
83.517825
0
ARC
8
0
10
70.865998
20
-24.7397171
40
2
50
83.517825
51
85.0000024
0
ARC
8
0
10
52.5857928
20
-19.125127
40
2
50
244.9172028
51
265.0000024
0
ARC
8
0
10
28.3550943
20
-12.2
40
2
50
64.9172028
51
90
0
ARC
8
0
10
-8.8
20
-8.2
40
2
50
180
51
270
0
ARC
8
0
10
-8.8
20
59.2
40
2
50
90
51
180
0
ARC
8
0
10
5.9958372
20
63.2
40
2
50
270
51
332.1027296
0
ARC
8
0
10
10.2041628
20
62.6
40
2
50
90
51
152.1027296
0
ARC
8
0
10
23.7849698
20
66.6
40
2
50
270
51
340.5599655
0
ARC
8
0
10
28.4150302
20
67.7
40
2
50
90
51
160.5599655
0
ARC
8
0
10
41.7849698
20
71.7
40
2
50
270
51
340.5599655
0
ARC
8
0
10
46.4150302
20
72.8
40
2
50
90
51
160.5599655
0
ARC
8
0
10
61.5849698
20
72.8
40
2
50
19.4400345
51
90
0
ARC
8
0
10
66.2150302
20
71.7
40
2
50
199.4400345
51
270
0
ARC
8
0
10
97.7958372
20
67.7
40
2
50
27.8972704
51
90
0
ARC
8
0
10
102.0041628
20
68.3
40
2
50
207.8972704
51
270
0
ARC
8
0
10
120.4
20
64.3
40
2
50
0
51
90
0
ARC
8
0
10
120.4
20
-1.5825686
40
2
50
353.2794182
51
0
0
ENDSEC
0
EOF