0
SECTION
2
HEADER
9
$INSUNITS
70
4
0
ENDSEC
0
SECTION
2
TABLES
0
TABLE
2
LTYPE
0
LTYPE
72
65
70
64
2
CONTINUOUS
3
______
73
0
40
0
0
ENDTAB
0
TABLE
2
LAYER
0
ENDTAB
0
ENDSEC
0
SECTION
2
ENTITIES
0
LINE
8
0
10
222.3862574
20
-101.8166236
11
220.5014065
21
-117.8120053
0
LINE
8
0
10
220.3277647
20
-118.4231869
11
212.6875745
21
-134.8076275
0
LINE
8
0
10
210.0297224
20
-135.7750064
11
195.6340939
21
-129.0622145
0
LINE
8
0
10
195.4185247
20
-128.9765364
11
190.9279607
21
-127.4870084
0
LINE
8
0
10
190.8159314
20
-127.4534504
11
175.0205673
21
-123.2210953
0
LINE
8
0
10
174.7287174
20
-123.165733
11
171.0917862
21
-122.7525031
0
LINE
8
0
10
171.0403094
20
-122.7473277
11
152.4114814
21
-121.1175164
0
LINE
8
0
10
151.7379378
20
-120.9365192
11
129.2029493
21
-110.3886078
0
LINE
8
0
10
91.2
20
-110.2
11
128.3550943
21
-110.2
0
LINE
8
0
10
89.2
20
-108.2
11
89.2
21
-40.8
0
LINE
8
0
10
91.2
20
-38.8
11
105.9958372
21
-38.8
0
LINE
8
0
10
107.763413
20
-37.7357754
11
108.436587
21
-36.4642246
0
LINE
8
0
10
110.2041628
20
-35.4
11
123.7849698
21
-35.4
0
LINE
8
0
10
125.6709505
20
-34.0656402
11
126.5290495
21
-31.6343598
0
LINE
8
0
10
128.4150302
20
-30.3
11
141.7849698
21
-30.3
0
LINE
8
0
10
143.6709505
20
-28.9656402
11
144.5290495
21
-26.5343598
0
LINE
8
0
10
146.4150302
20
-25.2
11
161.5849698
21
-25.2
0
LINE
8
0
10
163.4709505
20
-26.5343598
11
164.3290495
21
-28.9656402
0
LINE
8
0
10
166.2150302
20
-30.3
11
197.7958372
21
-30.3
0
LINE
8
0
10
199.563413
20
-31.3642246
11
200.236587
21
-32.6357754
0
LINE
8
0
10
202.0041628
20
-33.7
11
220.4
21
-33.7
0
LINE
8
0
10
222.4
20
-35.7
11
222.4
21
-101.5825686
0
ARC
8
0
10
218.5151491
20
-117.5779503
40
2
50
334.9999983
51
353.2794182
0
ARC
8
0
10
210.874959
20
-133.9623909
40
2
50
244.9999983
51
334.9999983
0
ARC
8
0
10
194.7888573
20
-130.8748301
40
2
50
64.9999983
51
71.6492262
0
ARC
8
0
10
190.2982934
20
-129.3853021
40
2
50
71.6492262
51
75.0000021
0
ARC
8
0
10
174.5029292
20
-125.1529471
40
2
50
75.0000021
51
83.517825
0
ARC
8
0
10
170.865998
20
-124.7397171
40
2
50
83.517825
51
85.0000024
0
ARC
8
0
10
152.5857928
20
-119.125127
40
2
50
244.9172028
51
265.0000024
0
ARC
8
0
10
128.3550943
20
-112.2
40
2
50
64.9172028
51
90
0
ARC
8
0
10
91.2
20
-108.2
40
2
50
180
51
270
0
ARC
8
0
10
91.2
20
-40.8
40
2
50
90
51
180
0
ARC
8
0
10
105.9958372
20
-36.8
40
2
50
270
51
332.1027296
0
ARC
8
0
10
110.2041628
20
-37.4
40
2
50
90
51
152.1027296
0
ARC
8
0
10
123.7849698
20
-33.4
40
2
50
270
51
340.5599655
0
ARC
8
0
10
128.4150302
20
-32.3
40
2
50
90
51
160.5599655
0
ARC
8
0
10
141.7849698
20
-28.3
40
2
50
270
51
340.5599655
0
ARC
8
0
10
146.4150302
20
-27.2
40
2
50
90
51
160.5599655
0
ARC
8
0
10
161.5849698
20
-27.2
40
2
50
19.4400345
51
90
0
ARC
8
0
10
166.2150302
20
-28.3
40
2
50
199.4400345
51
270
0
ARC
8
0
10
197.7958372
20
-32.3
40
2
50
27.8972704
51
90
0
ARC
8
0
10
202.0041628
20
-31.7
40
2
50
207.8972704
51
270
0
ARC
8
0
10
220.4
20
-35.7
40
2
50
0
51
90
0
ARC
8
0
10
220.4
20
-101.5825686
40
2
50
353.2794182
51
0
0
ENDSEC
0
EOF