0
SECTION
2
HEADER
9
$INSUNITS
70
4
0
ENDSEC
0
SECTION
2
TABLES
0
TABLE
2
LTYPE
0
LTYPE
72
65
70
64
2
CONTINUOUS
3
______
73
0
40
0
0
ENDTAB
0
TABLE
2
LAYER
0
ENDTAB
0
ENDSEC
0
SECTION
2
ENTITIES
0
LINE
8
0
10
226.3092888
20
-109.048521
11
209.966483
21
-135.9493602
0
LINE
8
0
10
207.4119577
20
-136.7235481
11
191.45418
21
-129.2823142
0
LINE
8
0
10
191.2681252
20
-129.206682
11
188.0655547
21
-128.0886738
0
LINE
8
0
10
187.9240109
20
-128.0450698
11
173.4988121
21
-124.1798495
0
LINE
8
0
10
173.2802185
20
-124.1341844
11
170.280218
21
-123.680518
0
LINE
8
0
10
170.155485
20
-123.6656453
11
152.2640844
21
-122.1003505
0
LINE
8
0
10
151.620071
20
-121.9328843
11
129.190434
21
-111.8750768
0
LINE
8
0
10
89.7
20
-111.7
11
128.3721092
21
-111.7
0
LINE
8
0
10
87.7
20
-109.7
11
87.7
21
-39.3
0
LINE
8
0
10
89.7
20
-37.3
11
105.9958372
21
-37.3
0
LINE
8
0
10
107.763413
20
-36.2357754
11
108.436587
21
-34.9642246
0
LINE
8
0
10
110.2041628
20
-33.9
11
123.7849698
21
-33.9
0
LINE
8
0
10
125.6709505
20
-32.5656402
11
126.5290495
21
-30.1343598
0
LINE
8
0
10
128.4150302
20
-28.8
11
141.7849698
21
-28.8
0
LINE
8
0
10
143.6709505
20
-27.4656402
11
144.5290495
21
-25.0343598
0
LINE
8
0
10
146.4150302
20
-23.7
11
161.5849698
21
-23.7
0
LINE
8
0
10
163.4709505
20
-25.0343598
11
164.3290495
21
-27.4656402
0
LINE
8
0
10
166.2150302
20
-28.8
11
180.1491402
21
-28.8
0
LINE
8
0
10
181.5900658
20
-29.4130128
11
182.8
21
-30.67
0
LINE
8
0
10
182.8
20
-30.67
11
224.6
21
-30.67
0
LINE
8
0
10
226.6
20
-32.67
11
226.6
21
-108.0100934
0
ARC
8
0
10
208.2571942
20
-134.9109326
40
2
50
244.9999983
51
328.7204708
0
ARC
8
0
10
190.6089434
20
-131.0949297
40
2
50
64.9999983
51
70.7560524
0
ARC
8
0
10
187.4063728
20
-129.9769215
40
2
50
70.7560524
51
75.0000021
0
ARC
8
0
10
172.9811741
20
-126.1117012
40
2
50
75.0000021
51
81.4007619
0
ARC
8
0
10
169.9811736
20
-125.6580347
40
2
50
81.4007619
51
85.0000024
0
ARC
8
0
10
152.4383958
20
-120.1079611
40
2
50
245.8477716
51
265.0000024
0
ARC
8
0
10
128.3721092
20
-113.7
40
2
50
65.8477716
51
90
0
ARC
8
0
10
89.7
20
-109.7
40
2
50
180
51
270
0
ARC
8
0
10
89.7
20
-39.3
40
2
50
90
51
180
0
ARC
8
0
10
105.9958372
20
-35.3
40
2
50
270
51
332.1027296
0
ARC
8
0
10
110.2041628
20
-35.9
40
2
50
90
51
152.1027296
0
ARC
8
0
10
123.7849698
20
-31.9
40
2
50
270
51
340.5599655
0
ARC
8
0
10
128.4150302
20
-30.8
40
2
50
90
51
160.5599655
0
ARC
8
0
10
141.7849698
20
-26.8
40
2
50
270
51
340.5599655
0
ARC
8
0
10
146.4150302
20
-25.7
40
2
50
90
51
160.5599655
0
ARC
8
0
10
161.5849698
20
-25.7
40
2
50
19.4400345
51
90
0
ARC
8
0
10
166.2150302
20
-26.8
40
2
50
199.4400345
51
270
0
ARC
8
0
10
180.1491402
20
-30.8
40
2
50
43.9072973
51
90
0
ARC
8
0
10
224.6
20
-32.67
40
2
50
0
51
90
0
ARC
8
0
10
224.6
20
-108.0100934
40
2
50
328.7204708
51
0
0
ENDSEC
0
EOF