0
SECTION
2
HEADER
9
$INSUNITS
70
4
0
ENDSEC
0
SECTION
2
TABLES
0
TABLE
2
LTYPE
0
LTYPE
72
65
70
64
2
CONTINUOUS
3
______
73
0
40
0
0
ENDTAB
0
TABLE
2
LAYER
0
ENDTAB
0
ENDSEC
0
SECTION
2
ENTITIES
0
LINE
8
0
10
93.25
20
-108.25
11
106.75
21
-108.25
0
LINE
8
0
10
108.75
20
-106.25
11
108.75
21
-93.75
0
LINE
8
0
10
106.75
20
-91.75
11
93.25
21
-91.75
0
LINE
8
0
10
91.25
20
-93.75
11
91.25
21
-106.25
0
LINE
8
0
10
93.25
20
-91.25
11
106.75
21
-91.25
0
LINE
8
0
10
108.75
20
-89.25
11
108.75
21
-76.75
0
LINE
8
0
10
106.75
20
-74.75
11
93.25
21
-74.75
0
LINE
8
0
10
91.25
20
-76.75
11
91.25
21
-89.25
0
LINE
8
0
10
93.25
20
-74.25
11
106.75
21
-74.25
0
LINE
8
0
10
108.75
20
-72.25
11
108.75
21
-59.75
0
LINE
8
0
10
106.75
20
-57.75
11
93.25
21
-57.75
0
LINE
8
0
10
91.25
20
-59.75
11
91.25
21
-72.25
0
LINE
8
0
10
93.25
20
-57.25
11
106.75
21
-57.25
0
LINE
8
0
10
108.75
20
-55.25
11
108.75
21
-42.75
0
LINE
8
0
10
106.75
20
-40.75
11
93.25
21
-40.75
0
LINE
8
0
10
91.25
20
-42.75
11
91.25
21
-55.25
0
LINE
8
0
10
111.25
20
-104.85
11
124.75
21
-104.85
0
LINE
8
0
10
126.75
20
-102.85
11
126.75
21
-90.35
0
LINE
8
0
10
124.75
20
-88.35
11
111.25
21
-88.35
0
LINE
8
0
10
109.25
20
-90.35
11
109.25
21
-102.85
0
LINE
8
0
10
111.25
20
-87.85
11
124.75
21
-87.85
0
LINE
8
0
10
126.75
20
-85.85
11
126.75
21
-73.35
0
LINE
8
0
10
124.75
20
-71.35
11
111.25
21
-71.35
0
LINE
8
0
10
109.25
20
-73.35
11
109.25
21
-85.85
0
LINE
8
0
10
111.25
20
-70.85
11
124.75
21
-70.85
0
LINE
8
0
10
126.75
20
-68.85
11
126.75
21
-56.35
0
LINE
8
0
10
124.75
20
-54.35
11
111.25
21
-54.35
0
LINE
8
0
10
109.25
20
-56.35
11
109.25
21
-68.85
0
LINE
8
0
10
111.25
20
-53.85
11
124.75
21
-53.85
0
LINE
8
0
10
126.75
20
-51.85
11
126.75
21
-39.35
0
LINE
8
0
10
124.75
20
-37.35
11
111.25
21
-37.35
0
LINE
8
0
10
109.25
20
-39.35
11
109.25
21
-51.85
0
LINE
8
0
10
129.25
20
-99.75
11
142.75
21
-99.75
0
LINE
8
0
10
144.75
20
-97.75
11
144.75
21
-85.25
0
LINE
8
0
10
142.75
20
-83.25
11
129.25
21
-83.25
0
LINE
8
0
10
127.25
20
-85.25
11
127.25
21
-97.75
0
LINE
8
0
10
129.25
20
-82.75
11
142.75
21
-82.75
0
LINE
8
0
10
144.75
20
-80.75
11
144.75
21
-68.25
0
LINE
8
0
10
142.75
20
-66.25
11
129.25
21
-66.25
0
LINE
8
0
10
127.25
20
-68.25
11
127.25
21
-80.75
0
LINE
8
0
10
129.25
20
-65.75
11
142.75
21
-65.75
0
LINE
8
0
10
144.75
20
-63.75
11
144.75
21
-51.25
0
LINE
8
0
10
142.75
20
-49.25
11
129.25
21
-49.25
0
LINE
8
0
10
127.25
20
-51.25
11
127.25
21
-63.75
0
LINE
8
0
10
129.25
20
-48.75
11
142.75
21
-48.75
0
LINE
8
0
10
144.75
20
-46.75
11
144.75
21
-34.25
0
LINE
8
0
10
142.75
20
-32.25
11
129.25
21
-32.25
0
LINE
8
0
10
127.25
20
-34.25
11
127.25
21
-46.75
0
LINE
8
0
10
147.25
20
-94.65
11
160.75
21
-94.65
0
LINE
8
0
10
162.75
20
-92.65
11
162.75
21
-80.15
0
LINE
8
0
10
160.75
20
-78.15
11
147.25
21
-78.15
0
LINE
8
0
10
145.25
20
-80.15
11
145.25
21
-92.65
0
LINE
8
0
10
147.25
20
-77.65
11
160.75
21
-77.65
0
LINE
8
0
10
162.75
20
-75.65
11
162.75
21
-63.15
0
LINE
8
0
10
160.75
20
-61.15
11
147.25
21
-61.15
0
LINE
8
0
10
145.25
20
-63.15
11
145.25
21
-75.65
0
LINE
8
0
10
147.25
20
-60.65
11
160.75
21
-60.65
0
LINE
8
0
10
162.75
20
-58.65
11
162.75
21
-46.15
0
LINE
8
0
10
160.75
20
-44.15
11
147.25
21
-44.15
0
LINE
8
0
10
145.25
20
-46.15
11
145.25
21
-58.65
0
LINE
8
0
10
147.25
20
-43.65
11
160.75
21
-43.65
0
LINE
8
0
10
162.75
20
-41.65
11
162.75
21
-29.15
0
LINE
8
0
10
160.75
20
-27.15
11
147.25
21
-27.15
0
LINE
8
0
10
145.25
20
-29.15
11
145.25
21
-41.65
0
LINE
8
0
10
165.25
20
-99.75
11
178.75
21
-99.75
0
LINE
8
0
10
180.75
20
-97.75
11
180.75
21
-85.25
0
LINE
8
0
10
178.75
20
-83.25
11
165.25
21
-83.25
0
LINE
8
0
10
163.25
20
-85.25
11
163.25
21
-97.75
0
LINE
8
0
10
165.25
20
-82.75
11
178.75
21
-82.75
0
LINE
8
0
10
180.75
20
-80.75
11
180.75
21
-68.25
0
LINE
8
0
10
178.75
20
-66.25
11
165.25
21
-66.25
0
LINE
8
0
10
163.25
20
-68.25
11
163.25
21
-80.75
0
LINE
8
0
10
165.25
20
-65.75
11
178.75
21
-65.75
0
LINE
8
0
10
180.75
20
-63.75
11
180.75
21
-51.25
0
LINE
8
0
10
178.75
20
-49.25
11
165.25
21
-49.25
0
LINE
8
0
10
163.25
20
-51.25
11
163.25
21
-63.75
0
LINE
8
0
10
165.25
20
-48.75
11
178.75
21
-48.75
0
LINE
8
0
10
180.75
20
-46.75
11
180.75
21
-34.25
0
LINE
8
0
10
178.75
20
-32.25
11
165.25
21
-32.25
0
LINE
8
0
10
163.25
20
-34.25
11
163.25
21
-46.75
0
LINE
8
0
10
183.25
20
-99.75
11
196.75
21
-99.75
0
LINE
8
0
10
198.75
20
-97.75
11
198.75
21
-85.25
0
LINE
8
0
10
196.75
20
-83.25
11
183.25
21
-83.25
0
LINE
8
0
10
181.25
20
-85.25
11
181.25
21
-97.75
0
LINE
8
0
10
183.25
20
-82.75
11
196.75
21
-82.75
0
LINE
8
0
10
198.75
20
-80.75
11
198.75
21
-68.25
0
LINE
8
0
10
196.75
20
-66.25
11
183.25
21
-66.25
0
LINE
8
0
10
181.25
20
-68.25
11
181.25
21
-80.75
0
LINE
8
0
10
183.25
20
-65.75
11
196.75
21
-65.75
0
LINE
8
0
10
198.75
20
-63.75
11
198.75
21
-51.25
0
LINE
8
0
10
196.75
20
-49.25
11
183.25
21
-49.25
0
LINE
8
0
10
181.25
20
-51.25
11
181.25
21
-63.75
0
LINE
8
0
10
183.25
20
-48.75
11
196.75
21
-48.75
0
LINE
8
0
10
198.75
20
-46.75
11
198.75
21
-34.25
0
LINE
8
0
10
196.75
20
-32.25
11
183.25
21
-32.25
0
LINE
8
0
10
181.25
20
-34.25
11
181.25
21
-46.75
0
LINE
8
0
10
156.2632271
20
-119.4970518
11
169.7118555
21
-120.6736543
0
LINE
8
0
10
171.8785563
20
-118.8555763
11
172.9680031
21
-106.4031426
0
LINE
8
0
10
171.1499251
20
-104.2364418
11
157.7012967
21
-103.0598393
0
LINE
8
0
10
155.5345959
20
-104.8779173
11
154.4451491
21
-117.330351
0
LINE
8
0
10
176.8592682
20
-121.6949852
11
189.8992668
21
-125.1890423
0
LINE
8
0
10
192.3487565
20
-123.7748286
11
195.5839945
21
-111.7007559
0
LINE
8
0
10
194.1697808
20
-109.2512662
11
181.1297822
21
-105.7572091
0
LINE
8
0
10
178.6802925
20
-107.1714228
11
175.4450545
21
-119.2454955
0
LINE
8
0
10
196.7607419
20
-127.4359923
11
208.9958971
21
-133.1413388
0
LINE
8
0
10
211.6537492
20
-132.1739598
11
216.9364774
21
-120.8451124
0
LINE
8
0
10
215.9690985
20
-118.1872603
11
203.7339433
21
-112.4819138
0
LINE
8
0
10
201.0760912
20
-113.4492928
11
195.793363
21
-124.7781402
0
ARC
8
0
10
106.75
20
-106.25
40
2
50
270
51
0
0
ARC
8
0
10
106.75
20
-93.75
40
2
50
0
51
90
0
ARC
8
0
10
93.25
20
-93.75
40
2
50
90
51
180
0
ARC
8
0
10
93.25
20
-106.25
40
2
50
180
51
270
0
ARC
8
0
10
106.75
20
-89.25
40
2
50
270
51
0
0
ARC
8
0
10
106.75
20
-76.75
40
2
50
0
51
90
0
ARC
8
0
10
93.25
20
-76.75
40
2
50
90
51
180
0
ARC
8
0
10
93.25
20
-89.25
40
2
50
180
51
270
0
ARC
8
0
10
106.75
20
-72.25
40
2
50
270
51
0
0
ARC
8
0
10
106.75
20
-59.75
40
2
50
0
51
90
0
ARC
8
0
10
93.25
20
-59.75
40
2
50
90
51
180
0
ARC
8
0
10
93.25
20
-72.25
40
2
50
180
51
270
0
ARC
8
0
10
106.75
20
-55.25
40
2
50
270
51
0
0
ARC
8
0
10
106.75
20
-42.75
40
2
50
0
51
90
0
ARC
8
0
10
93.25
20
-42.75
40
2
50
90
51
180
0
ARC
8
0
10
93.25
20
-55.25
40
2
50
180
51
270
0
ARC
8
0
10
124.75
20
-102.85
40
2
50
270
51
0
0
ARC
8
0
10
124.75
20
-90.35
40
2
50
0
51
90
0
ARC
8
0
10
111.25
20
-90.35
40
2
50
90
51
180
0
ARC
8
0
10
111.25
20
-102.85
40
2
50
180
51
270
0
ARC
8
0
10
124.75
20
-85.85
40
2
50
270
51
0
0
ARC
8
0
10
124.75
20
-73.35
40
2
50
0
51
90
0
ARC
8
0
10
111.25
20
-73.35
40
2
50
90
51
180
0
ARC
8
0
10
111.25
20
-85.85
40
2
50
180
51
270
0
ARC
8
0
10
124.75
20
-68.85
40
2
50
270
51
0
0
ARC
8
0
10
124.75
20
-56.35
40
2
50
0
51
90
0
ARC
8
0
10
111.25
20
-56.35
40
2
50
90
51
180
0
ARC
8
0
10
111.25
20
-68.85
40
2
50
180
51
270
0
ARC
8
0
10
124.75
20
-51.85
40
2
50
270
51
0
0
ARC
8
0
10
124.75
20
-39.35
40
2
50
0
51
90
0
ARC
8
0
10
111.25
20
-39.35
40
2
50
90
51
180
0
ARC
8
0
10
111.25
20
-51.85
40
2
50
180
51
270
0
ARC
8
0
10
142.75
20
-97.75
40
2
50
270
51
0
0
ARC
8
0
10
142.75
20
-85.25
40
2
50
0
51
90
0
ARC
8
0
10
129.25
20
-85.25
40
2
50
90
51
180
0
ARC
8
0
10
129.25
20
-97.75
40
2
50
180
51
270
0
ARC
8
0
10
142.75
20
-80.75
40
2
50
270
51
0
0
ARC
8
0
10
142.75
20
-68.25
40
2
50
0
51
90
0
ARC
8
0
10
129.25
20
-68.25
40
2
50
90
51
180
0
ARC
8
0
10
129.25
20
-80.75
40
2
50
180
51
270
0
ARC
8
0
10
142.75
20
-63.75
40
2
50
270
51
0
0
ARC
8
0
10
142.75
20
-51.25
40
2
50
0
51
90
0
ARC
8
0
10
129.25
20
-51.25
40
2
50
90
51
180
0
ARC
8
0
10
129.25
20
-63.75
40
2
50
180
51
270
0
ARC
8
0
10
142.75
20
-46.75
40
2
50
270
51
0
0
ARC
8
0
10
142.75
20
-34.25
40
2
50
0
51
90
0
ARC
8
0
10
129.25
20
-34.25
40
2
50
90
51
180
0
ARC
8
0
10
129.25
20
-46.75
40
2
50
180
51
270
0
ARC
8
0
10
160.75
20
-92.65
40
2
50
270
51
0
0
ARC
8
0
10
160.75
20
-80.15
40
2
50
0
51
90
0
ARC
8
0
10
147.25
20
-80.15
40
2
50
90
51
180
0
ARC
8
0
10
147.25
20
-92.65
40
2
50
180
51
270
0
ARC
8
0
10
160.75
20
-75.65
40
2
50
270
51
0
0
ARC
8
0
10
160.75
20
-63.15
40
2
50
0
51
90
0
ARC
8
0
10
147.25
20
-63.15
40
2
50
90
51
180
0
ARC
8
0
10
147.25
20
-75.65
40
2
50
180
51
270
0
ARC
8
0
10
160.75
20
-58.65
40
2
50
270
51
0
0
ARC
8
0
10
160.75
20
-46.15
40
2
50
0
51
90
0
ARC
8
0
10
147.25
20
-46.15
40
2
50
90
51
180
0
ARC
8
0
10
147.25
20
-58.65
40
2
50
180
51
270
0
ARC
8
0
10
160.75
20
-41.65
40
2
50
270
51
0
0
ARC
8
0
10
160.75
20
-29.15
40
2
50
0
51
90
0
ARC
8
0
10
147.25
20
-29.15
40
2
50
90
51
180
0
ARC
8
0
10
147.25
20
-41.65
40
2
50
180
51
270
0
ARC
8
0
10
178.75
20
-97.75
40
2
50
270
51
0
0
ARC
8
0
10
178.75
20
-85.25
40
2
50
0
51
90
0
ARC
8
0
10
165.25
20
-85.25
40
2
50
90
51
180
0
ARC
8
0
10
165.25
20
-97.75
40
2
50
180
51
270
0
ARC
8
0
10
178.75
20
-80.75
40
2
50
270
51
0
0
ARC
8
0
10
178.75
20
-68.25
40
2
50
0
51
90
0
ARC
8
0
10
165.25
20
-68.25
40
2
50
90
51
180
0
ARC
8
0
10
165.25
20
-80.75
40
2
50
180
51
270
0
ARC
8
0
10
178.75
20
-63.75
40
2
50
270
51
0
0
ARC
8
0
10
178.75
20
-51.25
40
2
50
0
51
90
0
ARC
8
0
10
165.25
20
-51.25
40
2
50
90
51
180
0
ARC
8
0
10
165.25
20
-63.75
40
2
50
180
51
270
0
ARC
8
0
10
178.75
20
-46.75
40
2
50
270
51
0
0
ARC
8
0
10
178.75
20
-34.25
40
2
50
0
51
90
0
ARC
8
0
10
165.25
20
-34.25
40
2
50
90
51
180
0
ARC
8
0
10
165.25
20
-46.75
40
2
50
180
51
270
0
ARC
8
0
10
196.75
20
-97.75
40
2
50
270
51
0
0
ARC
8
0
10
196.75
20
-85.25
40
2
50
0
51
90
0
ARC
8
0
10
183.25
20
-85.25
40
2
50
90
51
180
0
ARC
8
0
10
183.25
20
-97.75
40
2
50
180
51
270
0
ARC
8
0
10
196.75
20
-80.75
40
2
50
270
51
0
0
ARC
8
0
10
196.75
20
-68.25
40
2
50
0
51
90
0
ARC
8
0
10
183.25
20
-68.25
40
2
50
90
51
180
0
ARC
8
0
10
183.25
20
-80.75
40
2
50
180
51
270
0
ARC
8
0
10
196.75
20
-63.75
40
2
50
270
51
0
0
ARC
8
0
10
196.75
20
-51.25
40
2
50
0
51
90
0
ARC
8
0
10
183.25
20
-51.25
40
2
50
90
51
180
0
ARC
8
0
10
183.25
20
-63.75
40
2
50
180
51
270
0
ARC
8
0
10
196.75
20
-46.75
40
2
50
270
51
0
0
ARC
8
0
10
196.75
20
-34.25
40
2
50
0
51
90
0
ARC
8
0
10
183.25
20
-34.25
40
2
50
90
51
180
0
ARC
8
0
10
183.25
20
-46.75
40
2
50
180
51
270
0
ARC
8
0
10
190.4169048
20
-123.2571906
40
2
50
255.0000021
51
345.0000021
0
ARC
8
0
10
193.6521428
20
-111.1831179
40
2
50
345.0000021
51
75.0000021
0
ARC
8
0
10
180.6121442
20
-107.6890608
40
2
50
75.0000021
51
165.0000021
0
ARC
8
0
10
177.3769062
20
-119.7631335
40
2
50
165.0000021
51
255.0000021
0
ARC
8
0
10
209.8411336
20
-131.3287232
40
2
50
244.9999983
51
334.9999983
0
ARC
8
0
10
215.1238619
20
-119.9998759
40
2
50
334.9999983
51
64.9999983
0
ARC
8
0
10
202.8887068
20
-114.2945294
40
2
50
64.9999983
51
154.9999983
0
ARC
8
0
10
197.6059785
20
-125.6233767
40
2
50
154.9999983
51
244.9999983
0
ARC
8
0
10
169.8861669
20
-118.6812649
40
2
50
265.0000024
51
355.0000024
0
ARC
8
0
10
170.9756137
20
-106.2288312
40
2
50
355.0000024
51
85.0000024
0
ARC
8
0
10
157.5269853
20
-105.0522287
40
2
50
85.0000024
51
175.0000024
0
ARC
8
0
10
156.4375385
20
-117.5046624
40
2
50
175.0000024
51
265.0000024
0
ENDSEC
0
EOF