0
SECTION
2
HEADER
9
$INSUNITS
70
4
0
ENDSEC
0
SECTION
2
TABLES
0
TABLE
2
LTYPE
0
LTYPE
72
65
70
64
2
CONTINUOUS
3
______
73
0
40
0
0
ENDTAB
0
TABLE
2
LAYER
0
ENDTAB
0
ENDSEC
0
SECTION
2
ENTITIES
0
LINE
8
0
10
-9
20
-10.5
11
9
21
-10.5
0
ARC
8
0
10
9
20
-8.5
40
2
50
270
51
360
0
LINE
8
0
10
11
20
-8.5
11
11
21
-2.9
0
LINE
8
0
10
11
20
-2.9
11
28
21
-2.9
0
ARC
8
0
10
28
20
-0.9
40
2
50
270
51
360
0
LINE
8
0
10
30
20
-0.9
11
30
21
2.42
0
LINE
8
0
10
30
20
2.42
11
46
21
2.42
0
LINE
8
0
10
46
20
-25.79
11
46
21
2.42
0
ARC
8
0
10
48
20
-25.79
40
2
50
180
51
265.3722031
0
LINE
8
0
10
47.838635
20
-27.7834797
11
84.3569803
21
-30.7395083
0
LINE
8
0
10
84.3569803
20
-30.7395083
11
102.2759775
21
-36.7924329
0
ARC
8
0
10
102.9160344
20
-34.897617
40
2
50
251.3353549
51
341.0000001
0
LINE
8
0
10
104.8070716
20
-35.5487533
11
110.3417302
21
-19.4749375
0
ARC
8
0
10
108.450693
20
-18.8238012
40
2
50
341.0000001
51
431.0000007
0
LINE
8
0
10
109.1018293
20
-16.932764
11
92.0824949
21
-11.0725372
0
ARC
8
0
10
91.4313586
20
-12.9635744
40
2
50
71
51
124.3495844
0
LINE
8
0
10
90.3028771
20
-11.3123538
11
89.3113023
21
-11.0159914
0
ARC
8
0
10
87.569574
20
-11.9990391
40
2
50
389.4407881
51
440.5000016
0
LINE
8
0
10
87.8996692
20
-10.0264679
11
85.3410959
21
-9.5983096
0
LINE
8
0
10
85.3410959
20
-9.5983096
11
85.7926802
21
-5.7762075
0
ARC
8
0
10
85
20
-3.94
40
2
50
293.3495793
51
360
0
LINE
8
0
10
87
20
-3.94
11
87
21
51.06
0
ARC
8
0
10
85
20
51.06
40
2
50
0
51
90
0
LINE
8
0
10
68
20
53.06
11
85
21
53.06
0
LINE
8
0
10
68
20
53.06
11
68
21
53.15
0
ARC
8
0
10
66
20
53.15
40
2
50
0
51
90
0
LINE
8
0
10
49
20
55.15
11
66
21
55.15
0
LINE
8
0
10
49
20
55.15
11
49
21
59.42
0
ARC
8
0
10
47
20
59.42
40
2
50
0
51
90
0
LINE
8
0
10
47
20
61.42
11
29
21
61.42
0
ARC
8
0
10
29
20
59.42
40
2
50
90
51
180
0
LINE
8
0
10
27
20
59.42
11
27
21
56.1
0
LINE
8
0
10
10
20
56.1
11
27
21
56.1
0
ARC
8
0
10
10
20
54.1
40
2
50
90
51
180
0
LINE
8
0
10
8
20
54.1
11
8
21
48.5
0
LINE
8
0
10
-9
20
48.5
11
8
21
48.5
0
ARC
8
0
10
-9
20
46.5
40
2
50
90
51
180
0
LINE
8
0
10
-11
20
-8.5
11
-11
21
46.5
0
ARC
8
0
10
-9
20
-8.5
40
2
50
180
51
270
0
LINE
8
0
10
-7
20
-7
11
7
21
-7
0
LINE
8
0
10
7
20
-7
11
7
21
7
0
LINE
8
0
10
7
20
7
11
-7
21
7
0
LINE
8
0
10
-7
20
7
11
-7
21
-7
0
LINE
8
0
10
-7
20
12
11
7
21
12
0
LINE
8
0
10
7
20
12
11
7
21
26
0
LINE
8
0
10
7
20
26
11
-7
21
26
0
LINE
8
0
10
-7
20
26
11
-7
21
12
0
LINE
8
0
10
-7
20
31
11
7
21
31
0
LINE
8
0
10
7
20
31
11
7
21
45
0
LINE
8
0
10
7
20
45
11
-7
21
45
0
LINE
8
0
10
-7
20
45
11
-7
21
31
0
LINE
8
0
10
12
20
0.6
11
26
21
0.6
0
LINE
8
0
10
26
20
0.6
11
26
21
14.6
0
LINE
8
0
10
26
20
14.6
11
12
21
14.6
0
LINE
8
0
10
12
20
14.6
11
12
21
0.6
0
LINE
8
0
10
12
20
19.6
11
26
21
19.6
0
LINE
8
0
10
26
20
19.6
11
26
21
33.6
0
LINE
8
0
10
26
20
33.6
11
12
21
33.6
0
LINE
8
0
10
12
20
33.6
11
12
21
19.6
0
LINE
8
0
10
12
20
38.6
11
26
21
38.6
0
LINE
8
0
10
26
20
38.6
11
26
21
52.6
0
LINE
8
0
10
26
20
52.6
11
12
21
52.6
0
LINE
8
0
10
12
20
52.6
11
12
21
38.6
0
LINE
8
0
10
31
20
5.92
11
45
21
5.92
0
LINE
8
0
10
45
20
5.92
11
45
21
19.92
0
LINE
8
0
10
45
20
19.92
11
31
21
19.92
0
LINE
8
0
10
31
20
19.92
11
31
21
5.92
0
LINE
8
0
10
31
20
24.92
11
45
21
24.92
0
LINE
8
0
10
45
20
24.92
11
45
21
38.92
0
LINE
8
0
10
45
20
38.92
11
31
21
38.92
0
LINE
8
0
10
31
20
38.92
11
31
21
24.92
0
LINE
8
0
10
31
20
43.92
11
45
21
43.92
0
LINE
8
0
10
45
20
43.92
11
45
21
57.92
0
LINE
8
0
10
45
20
57.92
11
31
21
57.92
0
LINE
8
0
10
31
20
57.92
11
31
21
43.92
0
LINE
8
0
10
50
20
-0.35
11
64
21
-0.35
0
LINE
8
0
10
64
20
-0.35
11
64
21
13.65
0
LINE
8
0
10
64
20
13.65
11
50
21
13.65
0
LINE
8
0
10
50
20
13.65
11
50
21
-0.35
0
LINE
8
0
10
50
20
18.65
11
64
21
18.65
0
LINE
8
0
10
64
20
18.65
11
64
21
32.65
0
LINE
8
0
10
64
20
32.65
11
50
21
32.65
0
LINE
8
0
10
50
20
32.65
11
50
21
18.65
0
LINE
8
0
10
50
20
37.65
11
64
21
37.65
0
LINE
8
0
10
64
20
37.65
11
64
21
51.65
0
LINE
8
0
10
64
20
51.65
11
50
21
51.65
0
LINE
8
0
10
50
20
51.65
11
50
21
37.65
0
LINE
8
0
10
69
20
-2.44
11
83
21
-2.44
0
LINE
8
0
10
83
20
-2.44
11
83
21
11.56
0
LINE
8
0
10
83
20
11.56
11
69
21
11.56
0
LINE
8
0
10
69
20
11.56
11
69
21
-2.44
0
LINE
8
0
10
69
20
16.56
11
83
21
16.56
0
LINE
8
0
10
83
20
16.56
11
83
21
30.56
0
LINE
8
0
10
83
20
30.56
11
69
21
30.56
0
LINE
8
0
10
69
20
30.56
11
69
21
16.56
0
LINE
8
0
10
69
20
35.56
11
83
21
35.56
0
LINE
8
0
10
83
20
35.56
11
83
21
49.56
0
LINE
8
0
10
83
20
49.56
11
69
21
49.56
0
LINE
8
0
10
69
20
49.56
11
69
21
35.56
0
LINE
8
0
10
50
20
-24.29
11
64
21
-24.29
0
LINE
8
0
10
64
20
-24.29
11
64
21
-10.29
0
LINE
8
0
10
64
20
-10.29
11
50
21
-10.29
0
LINE
8
0
10
50
20
-10.29
11
50
21
-24.29
0
LINE
8
0
10
69.2307664
20
-24.6457043
11
83.0387649
21
-26.9563708
0
LINE
8
0
10
83.0387649
20
-26.9563708
11
85.3494314
21
-13.1483723
0
LINE
8
0
10
85.3494314
20
-13.1483723
11
71.5414329
21
-10.8377058
0
LINE
8
0
10
71.5414329
20
-10.8377058
11
69.2307664
21
-24.6457043
0
LINE
8
0
10
88.2760894
20
-28.2702486
11
101.5133494
21
-32.8282028
0
LINE
8
0
10
101.5133494
20
-32.8282028
11
106.0713036
21
-19.5909428
0
LINE
8
0
10
106.0713036
20
-19.5909428
11
92.8340436
21
-15.0329886
0
LINE
8
0
10
92.8340436
20
-15.0329886
11
88.2760894
21
-28.2702486
0
ENDSEC
0
EOF