0
SECTION
2
HEADER
9
$INSUNITS
70
4
0
ENDSEC
0
SECTION
2
TABLES
0
TABLE
2
LTYPE
0
LTYPE
72
65
70
64
2
CONTINUOUS
3
______
73
0
40
0
0
ENDTAB
0
TABLE
2
LAYER
0
ENDTAB
0
ENDSEC
0
SECTION
2
ENTITIES
0
LINE
8
0
10
110.221001
20
-6.9837733
11
111.5938562
21
-16.3823713
0
LINE
8
0
10
111.5058943
20
-17.3225805
11
104.8922676
21
-36.5299473
0
LINE
8
0
10
102.350094
20
-37.7698481
11
86.3589978
21
-32.2636721
0
LINE
8
0
10
86.1913864
20
-32.2140384
11
82.9804167
21
-31.4140141
0
LINE
8
0
10
82.8269869
20
-31.3821137
11
68.0180339
21
-28.9039449
0
LINE
8
0
10
67.8062611
20
-28.8800192
11
64.6591089
21
-28.6935031
0
LINE
8
0
10
64.5407865
20
-28.69
11
46.5047291
21
-28.69
0
LINE
8
0
10
45.0026473
20
-28.0105114
11
30.9973527
21
-12.0794886
0
LINE
8
0
10
-9.4
20
-11.4
11
29.4952709
21
-11.4
0
LINE
8
0
10
-11.4
20
-9.4
11
-11.4
21
47.4
0
LINE
8
0
10
-9.4
20
49.4
11
5.6
21
49.4
0
LINE
8
0
10
7.6
20
51.4
11
7.6
21
55
0
LINE
8
0
10
9.6
20
57
11
24.6
21
57
0
LINE
8
0
10
26.6
20
59
11
26.6
21
60.32
0
LINE
8
0
10
28.6
20
62.32
11
47.4
21
62.32
0
LINE
8
0
10
49.4
20
60.32
11
49.4
21
58.05
0
LINE
8
0
10
51.4
20
56.05
11
65.6152603
21
56.05
0
LINE
8
0
10
67.0951404
20
55.3953456
11
68.4
21
53.96
0
LINE
8
0
10
68.4
20
53.96
11
84.263932
21
53.96
0
LINE
8
0
10
86.0527864
20
52.8544272
11
86.8472136
21
51.2655728
0
LINE
8
0
10
88.636068
20
50.16
11
108.2
21
50.16
0
LINE
8
0
10
110.2
20
48.16
11
110.2
21
-6.6947005
0
ARC
8
0
10
109.6148572
20
-16.6714441
40
2
50
340.999998
51
8.3104339
0
ARC
8
0
10
103.0012304
20
-35.8788109
40
2
50
250.999998
51
340.999998
0
ARC
8
0
10
85.7078614
20
-34.1547092
40
2
50
70.999998
51
76.0094127
0
ARC
8
0
10
82.4968917
20
-33.3546849
40
2
50
76.0094127
51
80.5000003
0
ARC
8
0
10
67.6879387
20
-30.8765161
40
2
50
80.5000003
51
86.6083323
0
ARC
8
0
10
64.5407865
20
-30.69
40
2
50
86.6083323
51
90
0
ARC
8
0
10
46.5047291
20
-26.69
40
2
50
221.3193763
51
270
0
ARC
8
0
10
29.4952709
20
-13.4
40
2
50
41.3193763
51
90
0
ARC
8
0
10
-9.4
20
-9.4
40
2
50
180
51
270
0
ARC
8
0
10
-9.4
20
47.4
40
2
50
90
51
180
0
ARC
8
0
10
5.6
20
51.4
40
2
50
270
51
0
0
ARC
8
0
10
9.6
20
55
40
2
50
90
51
180
0
ARC
8
0
10
24.6
20
59
40
2
50
270
51
0
0
ARC
8
0
10
28.6
20
60.32
40
2
50
90
51
180
0
ARC
8
0
10
47.4
20
60.32
40
2
50
0
51
90
0
ARC
8
0
10
51.4
20
58.05
40
2
50
180
51
270
0
ARC
8
0
10
65.6152603
20
54.05
40
2
50
42.2736882
51
90
0
ARC
8
0
10
84.263932
20
51.96
40
2
50
26.5650512
51
90
0
ARC
8
0
10
88.636068
20
52.16
40
2
50
206.5650512
51
270
0
ARC
8
0
10
108.2
20
48.16
40
2
50
0
51
90
0
ARC
8
0
10
112.2
20
-6.6947005
40
2
50
180
51
188.3104339
0
LINE
8
0
10
-7.5
20
-9.5
11
7.5
21
-9.5
0
LINE
8
0
10
9.5
20
-7.5
11
9.5
21
-3.9
0
LINE
8
0
10
-9.5
20
-7.5
11
-9.5
21
45.5
0
LINE
8
0
10
7.5
20
47.5
11
-7.5
21
47.5
0
LINE
8
0
10
11.5
20
-1.9
11
26.5
21
-1.9
0
LINE
8
0
10
28.5
20
0.1
11
28.5
21
1.42
0
LINE
8
0
10
26.5
20
55.1
11
11.5
21
55.1
0
LINE
8
0
10
9.5
20
53.1
11
9.5
21
49.5
0
LINE
8
0
10
30.5
20
3.42
11
45.5
21
3.42
0
LINE
8
0
10
47.5
20
56.15
11
47.5
21
58.42
0
LINE
8
0
10
45.5
20
60.42
11
30.5
21
60.42
0
LINE
8
0
10
28.5
20
58.42
11
28.5
21
57.1
0
LINE
8
0
10
49.5
20
-2.85
11
64.5
21
-2.85
0
LINE
8
0
10
47.5
20
1.42
11
47.5
21
-0.85
0
LINE
8
0
10
66.5
20
54.06
11
66.5
21
54.15
0
LINE
8
0
10
66.5
20
54.15
11
49.5
21
54.15
0
LINE
8
0
10
66.5
20
-4.94
11
83.5
21
-4.94
0
LINE
8
0
10
85.5
20
-2.94
11
85.5
21
50.06
0
LINE
8
0
10
66.5
20
-4.85
11
66.5
21
-4.94
0
LINE
8
0
10
83.5
20
52.06
11
68.5
21
52.06
0
LINE
8
0
10
49.5
20
-26.79
11
66.5
21
-26.79
0
LINE
8
0
10
66.5
20
-26.79
11
66.5
21
-26.7234935
0
LINE
8
0
10
66.5
20
-25.8169761
11
66.5
21
-9.79
0
LINE
8
0
10
64.5
20
-7.79
11
49.5
21
-7.79
0
LINE
8
0
10
47.5
20
-9.79
11
47.5
21
-24.79
0
LINE
8
0
10
66.5
20
-26.7234935
11
83.1192887
21
-29.5046086
0
LINE
8
0
10
85.4219551
20
-27.8621326
11
87.8976692
21
-13.0678485
0
LINE
8
0
10
86.2551932
20
-10.7651821
11
71.4609091
21
-8.289468
0
LINE
8
0
10
69.1582427
20
-9.931944
11
66.5
21
-25.8169761
0
LINE
8
0
10
86.9894097
20
-30.471261
11
101.1721882
21
-35.3547833
0
LINE
8
0
10
103.7143618
20
-34.1148825
11
108.5978841
21
-19.932104
0
LINE
8
0
10
107.3579833
20
-17.3899304
11
93.1752048
21
-12.5064081
0
LINE
8
0
10
90.6330312
20
-13.7463089
11
85.7495089
21
-27.9290874
0
ARC
8
0
10
7.5
20
-7.5
40
2
50
270
51
0
0
ARC
8
0
10
11.5
20
-3.9
40
2
50
90
51
180
0
ARC
8
0
10
26.5
20
0.1
40
2
50
270
51
0
0
ARC
8
0
10
30.5
20
1.42
40
2
50
90
51
180
0
ARC
8
0
10
45.5
20
1.42
40
2
50
0
51
90
0
ARC
8
0
10
49.5
20
-0.85
40
2
50
180
51
270
0
ARC
8
0
10
64.5
20
-4.85
40
2
50
0
51
90
0
ARC
8
0
10
83.5
20
-2.94
40
2
50
270
51
0
0
ARC
8
0
10
83.5
20
50.06
40
2
50
0
51
90
0
ARC
8
0
10
68.5
20
54.06
40
2
50
180
51
270
0
ARC
8
0
10
49.5
20
56.15
40
2
50
180
51
270
0
ARC
8
0
10
45.5
20
58.42
40
2
50
0
51
90
0
ARC
8
0
10
30.5
20
58.42
40
2
50
90
51
180
0
ARC
8
0
10
26.5
20
57.1
40
2
50
270
51
0
0
ARC
8
0
10
11.5
20
53.1
40
2
50
90
51
180
0
ARC
8
0
10
7.5
20
49.5
40
2
50
270
51
0
0
ARC
8
0
10
-7.5
20
45.5
40
2
50
90
51
180
0
ARC
8
0
10
-7.5
20
-7.5
40
2
50
180
51
270
0
ARC
8
0
10
83.4493839
20
-27.5320374
40
2
50
260.5000003
51
350.5000003
0
ARC
8
0
10
85.925098
20
-12.7377533
40
2
50
350.5000003
51
80.5000003
0
ARC
8
0
10
71.1308139
20
-10.2620392
40
2
50
80.5000003
51
170.5000003
0
ARC
8
0
10
64.5
20
-9.79
40
2
50
0
51
90
0
ARC
8
0
10
49.5
20
-9.79
40
2
50
90
51
180
0
ARC
8
0
10
49.5
20
-24.79
40
2
50
180
51
270
0
ARC
8
0
10
101.8233246
20
-33.4637461
40
2
50
250.999998
51
340.999998
0
ARC
8
0
10
106.7068469
20
-19.2809676
40
2
50
340.999998
51
70.999998
0
ARC
8
0
10
92.5240684
20
-14.3974453
40
2
50
70.999998
51
160.999998
0
ARC
8
0
10
87.6405461
20
-28.5802238
40
2
50
160.999998
51
250.999998
0
ENDSEC
0
EOF