0
SECTION
2
HEADER
9
$INSUNITS
70
4
0
ENDSEC
0
SECTION
2
TABLES
0
TABLE
2
LTYPE
0
LTYPE
72
65
70
64
2
CONTINUOUS
3
______
73
0
40
0
0
ENDTAB
0
TABLE
2
LAYER
0
ENDTAB
0
ENDSEC
0
SECTION
2
ENTITIES
0
LINE
8
0
10
122.3862574
20
-1.8166236
11
120.5014065
21
-17.8120053
0
LINE
8
0
10
120.3277647
20
-18.4231869
11
112.6875745
21
-34.8076275
0
LINE
8
0
10
110.0297224
20
-35.7750064
11
95.6340939
21
-29.0622145
0
LINE
8
0
10
95.4185247
20
-28.9765364
11
90.9279607
21
-27.4870084
0
LINE
8
0
10
90.8159314
20
-27.4534504
11
75.0205673
21
-23.2210953
0
LINE
8
0
10
74.7287174
20
-23.165733
11
71.0917862
21
-22.7525031
0
LINE
8
0
10
71.0403094
20
-22.7473277
11
52.4114814
21
-21.1175164
0
LINE
8
0
10
51.7379378
20
-20.9365192
11
29.2029493
21
-10.3886078
0
LINE
8
0
10
-8.8
20
-10.2
11
28.3550943
21
-10.2
0
LINE
8
0
10
-10.8
20
-8.2
11
-10.8
21
59.2
0
LINE
8
0
10
-8.8
20
61.2
11
5.9958372
21
61.2
0
LINE
8
0
10
7.763413
20
62.2642246
11
8.436587
21
63.5357754
0
LINE
8
0
10
10.2041628
20
64.6
11
23.7849698
21
64.6
0
LINE
8
0
10
25.6709505
20
65.9343598
11
26.5290495
21
68.3656402
0
LINE
8
0
10
28.4150302
20
69.7
11
41.7849698
21
69.7
0
LINE
8
0
10
43.6709505
20
71.0343598
11
44.5290495
21
73.4656402
0
LINE
8
0
10
46.4150302
20
74.8
11
61.5849698
21
74.8
0
LINE
8
0
10
63.4709505
20
73.4656402
11
64.3290495
21
71.0343598
0
LINE
8
0
10
66.2150302
20
69.7
11
97.7958372
21
69.7
0
LINE
8
0
10
99.563413
20
68.6357754
11
100.236587
21
67.3642246
0
LINE
8
0
10
102.0041628
20
66.3
11
120.4
21
66.3
0
LINE
8
0
10
122.4
20
64.3
11
122.4
21
-1.5825686
0
ARC
8
0
10
118.5151491
20
-17.5779503
40
2
50
334.9999983
51
353.2794182
0
ARC
8
0
10
110.874959
20
-33.9623909
40
2
50
244.9999983
51
334.9999983
0
ARC
8
0
10
94.7888573
20
-30.8748301
40
2
50
64.9999983
51
71.6492262
0
ARC
8
0
10
90.2982934
20
-29.3853021
40
2
50
71.6492262
51
75.0000021
0
ARC
8
0
10
74.5029292
20
-25.1529471
40
2
50
75.0000021
51
83.517825
0
ARC
8
0
10
70.865998
20
-24.7397171
40
2
50
83.517825
51
85.0000024
0
ARC
8
0
10
52.5857928
20
-19.125127
40
2
50
244.9172028
51
265.0000024
0
ARC
8
0
10
28.3550943
20
-12.2
40
2
50
64.9172028
51
90
0
ARC
8
0
10
-8.8
20
-8.2
40
2
50
180
51
270
0
ARC
8
0
10
-8.8
20
59.2
40
2
50
90
51
180
0
ARC
8
0
10
5.9958372
20
63.2
40
2
50
270
51
332.1027296
0
ARC
8
0
10
10.2041628
20
62.6
40
2
50
90
51
152.1027296
0
ARC
8
0
10
23.7849698
20
66.6
40
2
50
270
51
340.5599655
0
ARC
8
0
10
28.4150302
20
67.7
40
2
50
90
51
160.5599655
0
ARC
8
0
10
41.7849698
20
71.7
40
2
50
270
51
340.5599655
0
ARC
8
0
10
46.4150302
20
72.8
40
2
50
90
51
160.5599655
0
ARC
8
0
10
61.5849698
20
72.8
40
2
50
19.4400345
51
90
0
ARC
8
0
10
66.2150302
20
71.7
40
2
50
199.4400345
51
270
0
ARC
8
0
10
97.7958372
20
67.7
40
2
50
27.8972704
51
90
0
ARC
8
0
10
102.0041628
20
68.3
40
2
50
207.8972704
51
270
0
ARC
8
0
10
120.4
20
64.3
40
2
50
0
51
90
0
ARC
8
0
10
120.4
20
-1.5825686
40
2
50
353.2794182
51
0
0
LINE
8
0
10
-6.75
20
-8.25
11
6.75
21
-8.25
0
LINE
8
0
10
8.75
20
-6.25
11
8.75
21
6.25
0
LINE
8
0
10
6.75
20
8.25
11
-6.75
21
8.25
0
LINE
8
0
10
-8.75
20
6.25
11
-8.75
21
-6.25
0
LINE
8
0
10
-6.75
20
8.75
11
6.75
21
8.75
0
LINE
8
0
10
8.75
20
10.75
11
8.75
21
23.25
0
LINE
8
0
10
6.75
20
25.25
11
-6.75
21
25.25
0
LINE
8
0
10
-8.75
20
23.25
11
-8.75
21
10.75
0
LINE
8
0
10
-6.75
20
25.75
11
6.75
21
25.75
0
LINE
8
0
10
8.75
20
27.75
11
8.75
21
40.25
0
LINE
8
0
10
6.75
20
42.25
11
-6.75
21
42.25
0
LINE
8
0
10
-8.75
20
40.25
11
-8.75
21
27.75
0
LINE
8
0
10
-6.75
20
42.75
11
6.75
21
42.75
0
LINE
8
0
10
8.75
20
44.75
11
8.75
21
57.25
0
LINE
8
0
10
6.75
20
59.25
11
-6.75
21
59.25
0
LINE
8
0
10
-8.75
20
57.25
11
-8.75
21
44.75
0
LINE
8
0
10
11.25
20
-4.85
11
24.75
21
-4.85
0
LINE
8
0
10
26.75
20
-2.85
11
26.75
21
9.65
0
LINE
8
0
10
24.75
20
11.65
11
11.25
21
11.65
0
LINE
8
0
10
9.25
20
9.65
11
9.25
21
-2.85
0
LINE
8
0
10
11.25
20
12.15
11
24.75
21
12.15
0
LINE
8
0
10
26.75
20
14.15
11
26.75
21
26.65
0
LINE
8
0
10
24.75
20
28.65
11
11.25
21
28.65
0
LINE
8
0
10
9.25
20
26.65
11
9.25
21
14.15
0
LINE
8
0
10
11.25
20
29.15
11
24.75
21
29.15
0
LINE
8
0
10
26.75
20
31.15
11
26.75
21
43.65
0
LINE
8
0
10
24.75
20
45.65
11
11.25
21
45.65
0
LINE
8
0
10
9.25
20
43.65
11
9.25
21
31.15
0
LINE
8
0
10
11.25
20
46.15
11
24.75
21
46.15
0
LINE
8
0
10
26.75
20
48.15
11
26.75
21
60.65
0
LINE
8
0
10
24.75
20
62.65
11
11.25
21
62.65
0
LINE
8
0
10
9.25
20
60.65
11
9.25
21
48.15
0
LINE
8
0
10
29.25
20
0.25
11
42.75
21
0.25
0
LINE
8
0
10
44.75
20
2.25
11
44.75
21
14.75
0
LINE
8
0
10
42.75
20
16.75
11
29.25
21
16.75
0
LINE
8
0
10
27.25
20
14.75
11
27.25
21
2.25
0
LINE
8
0
10
29.25
20
17.25
11
42.75
21
17.25
0
LINE
8
0
10
44.75
20
19.25
11
44.75
21
31.75
0
LINE
8
0
10
42.75
20
33.75
11
29.25
21
33.75
0
LINE
8
0
10
27.25
20
31.75
11
27.25
21
19.25
0
LINE
8
0
10
29.25
20
34.25
11
42.75
21
34.25
0
LINE
8
0
10
44.75
20
36.25
11
44.75
21
48.75
0
LINE
8
0
10
42.75
20
50.75
11
29.25
21
50.75
0
LINE
8
0
10
27.25
20
48.75
11
27.25
21
36.25
0
LINE
8
0
10
29.25
20
51.25
11
42.75
21
51.25
0
LINE
8
0
10
44.75
20
53.25
11
44.75
21
65.75
0
LINE
8
0
10
42.75
20
67.75
11
29.25
21
67.75
0
LINE
8
0
10
27.25
20
65.75
11
27.25
21
53.25
0
LINE
8
0
10
47.25
20
5.35
11
60.75
21
5.35
0
LINE
8
0
10
62.75
20
7.35
11
62.75
21
19.85
0
LINE
8
0
10
60.75
20
21.85
11
47.25
21
21.85
0
LINE
8
0
10
45.25
20
19.85
11
45.25
21
7.35
0
LINE
8
0
10
47.25
20
22.35
11
60.75
21
22.35
0
LINE
8
0
10
62.75
20
24.35
11
62.75
21
36.85
0
LINE
8
0
10
60.75
20
38.85
11
47.25
21
38.85
0
LINE
8
0
10
45.25
20
36.85
11
45.25
21
24.35
0
LINE
8
0
10
47.25
20
39.35
11
60.75
21
39.35
0
LINE
8
0
10
62.75
20
41.35
11
62.75
21
53.85
0
LINE
8
0
10
60.75
20
55.85
11
47.25
21
55.85
0
LINE
8
0
10
45.25
20
53.85
11
45.25
21
41.35
0
LINE
8
0
10
47.25
20
56.35
11
60.75
21
56.35
0
LINE
8
0
10
62.75
20
58.35
11
62.75
21
70.85
0
LINE
8
0
10
60.75
20
72.85
11
47.25
21
72.85
0
LINE
8
0
10
45.25
20
70.85
11
45.25
21
58.35
0
LINE
8
0
10
65.25
20
0.25
11
78.75
21
0.25
0
LINE
8
0
10
80.75
20
2.25
11
80.75
21
14.75
0
LINE
8
0
10
78.75
20
16.75
11
65.25
21
16.75
0
LINE
8
0
10
63.25
20
14.75
11
63.25
21
2.25
0
LINE
8
0
10
65.25
20
17.25
11
78.75
21
17.25
0
LINE
8
0
10
80.75
20
19.25
11
80.75
21
31.75
0
LINE
8
0
10
78.75
20
33.75
11
65.25
21
33.75
0
LINE
8
0
10
63.25
20
31.75
11
63.25
21
19.25
0
LINE
8
0
10
65.25
20
34.25
11
78.75
21
34.25
0
LINE
8
0
10
80.75
20
36.25
11
80.75
21
48.75
0
LINE
8
0
10
78.75
20
50.75
11
65.25
21
50.75
0
LINE
8
0
10
63.25
20
48.75
11
63.25
21
36.25
0
LINE
8
0
10
65.25
20
51.25
11
78.75
21
51.25
0
LINE
8
0
10
80.75
20
53.25
11
80.75
21
65.75
0
LINE
8
0
10
78.75
20
67.75
11
65.25
21
67.75
0
LINE
8
0
10
63.25
20
65.75
11
63.25
21
53.25
0
LINE
8
0
10
83.25
20
0.25
11
96.75
21
0.25
0
LINE
8
0
10
98.75
20
2.25
11
98.75
21
14.75
0
LINE
8
0
10
96.75
20
16.75
11
83.25
21
16.75
0
LINE
8
0
10
81.25
20
14.75
11
81.25
21
2.25
0
LINE
8
0
10
83.25
20
17.25
11
96.75
21
17.25
0
LINE
8
0
10
98.75
20
19.25
11
98.75
21
31.75
0
LINE
8
0
10
96.75
20
33.75
11
83.25
21
33.75
0
LINE
8
0
10
81.25
20
31.75
11
81.25
21
19.25
0
LINE
8
0
10
83.25
20
34.25
11
96.75
21
34.25
0
LINE
8
0
10
98.75
20
36.25
11
98.75
21
48.75
0
LINE
8
0
10
96.75
20
50.75
11
83.25
21
50.75
0
LINE
8
0
10
81.25
20
48.75
11
81.25
21
36.25
0
LINE
8
0
10
83.25
20
51.25
11
96.75
21
51.25
0
LINE
8
0
10
98.75
20
53.25
11
98.75
21
65.75
0
LINE
8
0
10
96.75
20
67.75
11
83.25
21
67.75
0
LINE
8
0
10
81.25
20
65.75
11
81.25
21
53.25
0
LINE
8
0
10
56.2632271
20
-19.4970518
11
69.7118555
21
-20.6736543
0
LINE
8
0
10
71.8785563
20
-18.8555763
11
72.9680031
21
-6.4031426
0
LINE
8
0
10
71.1499251
20
-4.2364418
11
57.7012967
21
-3.0598393
0
LINE
8
0
10
55.5345959
20
-4.8779173
11
54.4451491
21
-17.330351
0
LINE
8
0
10
76.8592682
20
-21.6949852
11
89.8992668
21
-25.1890423
0
LINE
8
0
10
92.3487565
20
-23.7748286
11
95.5839945
21
-11.7007559
0
LINE
8
0
10
94.1697808
20
-9.2512662
11
81.1297822
21
-5.7572091
0
LINE
8
0
10
78.6802925
20
-7.1714228
11
75.4450545
21
-19.2454955
0
LINE
8
0
10
96.7607419
20
-27.4359923
11
108.9958971
21
-33.1413388
0
LINE
8
0
10
111.6537492
20
-32.1739598
11
116.9364774
21
-20.8451124
0
LINE
8
0
10
115.9690985
20
-18.1872603
11
103.7339433
21
-12.4819138
0
LINE
8
0
10
101.0760912
20
-13.4492928
11
95.793363
21
-24.7781402
0
ARC
8
0
10
6.75
20
-6.25
40
2
50
270
51
0
0
ARC
8
0
10
6.75
20
6.25
40
2
50
0
51
90
0
ARC
8
0
10
-6.75
20
6.25
40
2
50
90
51
180
0
ARC
8
0
10
-6.75
20
-6.25
40
2
50
180
51
270
0
ARC
8
0
10
6.75
20
10.75
40
2
50
270
51
0
0
ARC
8
0
10
6.75
20
23.25
40
2
50
0
51
90
0
ARC
8
0
10
-6.75
20
23.25
40
2
50
90
51
180
0
ARC
8
0
10
-6.75
20
10.75
40
2
50
180
51
270
0
ARC
8
0
10
6.75
20
27.75
40
2
50
270
51
0
0
ARC
8
0
10
6.75
20
40.25
40
2
50
0
51
90
0
ARC
8
0
10
-6.75
20
40.25
40
2
50
90
51
180
0
ARC
8
0
10
-6.75
20
27.75
40
2
50
180
51
270
0
ARC
8
0
10
6.75
20
44.75
40
2
50
270
51
0
0
ARC
8
0
10
6.75
20
57.25
40
2
50
0
51
90
0
ARC
8
0
10
-6.75
20
57.25
40
2
50
90
51
180
0
ARC
8
0
10
-6.75
20
44.75
40
2
50
180
51
270
0
ARC
8
0
10
24.75
20
-2.85
40
2
50
270
51
0
0
ARC
8
0
10
24.75
20
9.65
40
2
50
0
51
90
0
ARC
8
0
10
11.25
20
9.65
40
2
50
90
51
180
0
ARC
8
0
10
11.25
20
-2.85
40
2
50
180
51
270
0
ARC
8
0
10
24.75
20
14.15
40
2
50
270
51
0
0
ARC
8
0
10
24.75
20
26.65
40
2
50
0
51
90
0
ARC
8
0
10
11.25
20
26.65
40
2
50
90
51
180
0
ARC
8
0
10
11.25
20
14.15
40
2
50
180
51
270
0
ARC
8
0
10
24.75
20
31.15
40
2
50
270
51
0
0
ARC
8
0
10
24.75
20
43.65
40
2
50
0
51
90
0
ARC
8
0
10
11.25
20
43.65
40
2
50
90
51
180
0
ARC
8
0
10
11.25
20
31.15
40
2
50
180
51
270
0
ARC
8
0
10
24.75
20
48.15
40
2
50
270
51
0
0
ARC
8
0
10
24.75
20
60.65
40
2
50
0
51
90
0
ARC
8
0
10
11.25
20
60.65
40
2
50
90
51
180
0
ARC
8
0
10
11.25
20
48.15
40
2
50
180
51
270
0
ARC
8
0
10
42.75
20
2.25
40
2
50
270
51
0
0
ARC
8
0
10
42.75
20
14.75
40
2
50
0
51
90
0
ARC
8
0
10
29.25
20
14.75
40
2
50
90
51
180
0
ARC
8
0
10
29.25
20
2.25
40
2
50
180
51
270
0
ARC
8
0
10
42.75
20
19.25
40
2
50
270
51
0
0
ARC
8
0
10
42.75
20
31.75
40
2
50
0
51
90
0
ARC
8
0
10
29.25
20
31.75
40
2
50
90
51
180
0
ARC
8
0
10
29.25
20
19.25
40
2
50
180
51
270
0
ARC
8
0
10
42.75
20
36.25
40
2
50
270
51
0
0
ARC
8
0
10
42.75
20
48.75
40
2
50
0
51
90
0
ARC
8
0
10
29.25
20
48.75
40
2
50
90
51
180
0
ARC
8
0
10
29.25
20
36.25
40
2
50
180
51
270
0
ARC
8
0
10
42.75
20
53.25
40
2
50
270
51
0
0
ARC
8
0
10
42.75
20
65.75
40
2
50
0
51
90
0
ARC
8
0
10
29.25
20
65.75
40
2
50
90
51
180
0
ARC
8
0
10
29.25
20
53.25
40
2
50
180
51
270
0
ARC
8
0
10
60.75
20
7.35
40
2
50
270
51
0
0
ARC
8
0
10
60.75
20
19.85
40
2
50
0
51
90
0
ARC
8
0
10
47.25
20
19.85
40
2
50
90
51
180
0
ARC
8
0
10
47.25
20
7.35
40
2
50
180
51
270
0
ARC
8
0
10
60.75
20
24.35
40
2
50
270
51
0
0
ARC
8
0
10
60.75
20
36.85
40
2
50
0
51
90
0
ARC
8
0
10
47.25
20
36.85
40
2
50
90
51
180
0
ARC
8
0
10
47.25
20
24.35
40
2
50
180
51
270
0
ARC
8
0
10
60.75
20
41.35
40
2
50
270
51
0
0
ARC
8
0
10
60.75
20
53.85
40
2
50
0
51
90
0
ARC
8
0
10
47.25
20
53.85
40
2
50
90
51
180
0
ARC
8
0
10
47.25
20
41.35
40
2
50
180
51
270
0
ARC
8
0
10
60.75
20
58.35
40
2
50
270
51
0
0
ARC
8
0
10
60.75
20
70.85
40
2
50
0
51
90
0
ARC
8
0
10
47.25
20
70.85
40
2
50
90
51
180
0
ARC
8
0
10
47.25
20
58.35
40
2
50
180
51
270
0
ARC
8
0
10
78.75
20
2.25
40
2
50
270
51
0
0
ARC
8
0
10
78.75
20
14.75
40
2
50
0
51
90
0
ARC
8
0
10
65.25
20
14.75
40
2
50
90
51
180
0
ARC
8
0
10
65.25
20
2.25
40
2
50
180
51
270
0
ARC
8
0
10
78.75
20
19.25
40
2
50
270
51
0
0
ARC
8
0
10
78.75
20
31.75
40
2
50
0
51
90
0
ARC
8
0
10
65.25
20
31.75
40
2
50
90
51
180
0
ARC
8
0
10
65.25
20
19.25
40
2
50
180
51
270
0
ARC
8
0
10
78.75
20
36.25
40
2
50
270
51
0
0
ARC
8
0
10
78.75
20
48.75
40
2
50
0
51
90
0
ARC
8
0
10
65.25
20
48.75
40
2
50
90
51
180
0
ARC
8
0
10
65.25
20
36.25
40
2
50
180
51
270
0
ARC
8
0
10
78.75
20
53.25
40
2
50
270
51
0
0
ARC
8
0
10
78.75
20
65.75
40
2
50
0
51
90
0
ARC
8
0
10
65.25
20
65.75
40
2
50
90
51
180
0
ARC
8
0
10
65.25
20
53.25
40
2
50
180
51
270
0
ARC
8
0
10
96.75
20
2.25
40
2
50
270
51
0
0
ARC
8
0
10
96.75
20
14.75
40
2
50
0
51
90
0
ARC
8
0
10
83.25
20
14.75
40
2
50
90
51
180
0
ARC
8
0
10
83.25
20
2.25
40
2
50
180
51
270
0
ARC
8
0
10
96.75
20
19.25
40
2
50
270
51
0
0
ARC
8
0
10
96.75
20
31.75
40
2
50
0
51
90
0
ARC
8
0
10
83.25
20
31.75
40
2
50
90
51
180
0
ARC
8
0
10
83.25
20
19.25
40
2
50
180
51
270
0
ARC
8
0
10
96.75
20
36.25
40
2
50
270
51
0
0
ARC
8
0
10
96.75
20
48.75
40
2
50
0
51
90
0
ARC
8
0
10
83.25
20
48.75
40
2
50
90
51
180
0
ARC
8
0
10
83.25
20
36.25
40
2
50
180
51
270
0
ARC
8
0
10
96.75
20
53.25
40
2
50
270
51
0
0
ARC
8
0
10
96.75
20
65.75
40
2
50
0
51
90
0
ARC
8
0
10
83.25
20
65.75
40
2
50
90
51
180
0
ARC
8
0
10
83.25
20
53.25
40
2
50
180
51
270
0
ARC
8
0
10
90.4169048
20
-23.2571906
40
2
50
255.0000021
51
345.0000021
0
ARC
8
0
10
93.6521428
20
-11.1831179
40
2
50
345.0000021
51
75.0000021
0
ARC
8
0
10
80.6121442
20
-7.6890608
40
2
50
75.0000021
51
165.0000021
0
ARC
8
0
10
77.3769062
20
-19.7631335
40
2
50
165.0000021
51
255.0000021
0
ARC
8
0
10
109.8411336
20
-31.3287232
40
2
50
244.9999983
51
334.9999983
0
ARC
8
0
10
115.1238619
20
-19.9998759
40
2
50
334.9999983
51
64.9999983
0
ARC
8
0
10
102.8887068
20
-14.2945294
40
2
50
64.9999983
51
154.9999983
0
ARC
8
0
10
97.6059785
20
-25.6233767
40
2
50
154.9999983
51
244.9999983
0
ARC
8
0
10
69.8861669
20
-18.6812649
40
2
50
265.0000024
51
355.0000024
0
ARC
8
0
10
70.9756137
20
-6.2288312
40
2
50
355.0000024
51
85.0000024
0
ARC
8
0
10
57.5269853
20
-5.0522287
40
2
50
85.0000024
51
175.0000024
0
ARC
8
0
10
56.4375385
20
-17.5046624
40
2
50
175.0000024
51
265.0000024
0
ENDSEC
0
EOF