0
SECTION
2
HEADER
9
$INSUNITS
70
4
0
ENDSEC
0
SECTION
2
TABLES
0
TABLE
2
LTYPE
0
LTYPE
72
65
70
64
2
CONTINUOUS
3
______
73
0
40
0
0
ENDTAB
0
TABLE
2
LAYER
0
ENDTAB
0
ENDSEC
0
SECTION
2
ENTITIES
0
LINE
8
0
10
226.3092888
20
-109.048521
11
209.966483
21
-135.9493602
0
LINE
8
0
10
207.4119577
20
-136.7235481
11
191.45418
21
-129.2823142
0
LINE
8
0
10
191.2681252
20
-129.206682
11
188.0655547
21
-128.0886738
0
LINE
8
0
10
187.9240109
20
-128.0450698
11
173.4988121
21
-124.1798495
0
LINE
8
0
10
173.2802185
20
-124.1341844
11
170.280218
21
-123.680518
0
LINE
8
0
10
170.155485
20
-123.6656453
11
152.2640844
21
-122.1003505
0
LINE
8
0
10
151.620071
20
-121.9328843
11
129.190434
21
-111.8750768
0
LINE
8
0
10
89.7
20
-111.7
11
128.3721092
21
-111.7
0
LINE
8
0
10
87.7
20
-109.7
11
87.7
21
-39.3
0
LINE
8
0
10
89.7
20
-37.3
11
105.9958372
21
-37.3
0
LINE
8
0
10
107.763413
20
-36.2357754
11
108.436587
21
-34.9642246
0
LINE
8
0
10
110.2041628
20
-33.9
11
123.7849698
21
-33.9
0
LINE
8
0
10
125.6709505
20
-32.5656402
11
126.5290495
21
-30.1343598
0
LINE
8
0
10
128.4150302
20
-28.8
11
141.7849698
21
-28.8
0
LINE
8
0
10
143.6709505
20
-27.4656402
11
144.5290495
21
-25.0343598
0
LINE
8
0
10
146.4150302
20
-23.7
11
161.5849698
21
-23.7
0
LINE
8
0
10
163.4709505
20
-25.0343598
11
164.3290495
21
-27.4656402
0
LINE
8
0
10
166.2150302
20
-28.8
11
180.1491402
21
-28.8
0
LINE
8
0
10
181.5900658
20
-29.4130128
11
182.8
21
-30.67
0
LINE
8
0
10
182.8
20
-30.67
11
224.6
21
-30.67
0
LINE
8
0
10
226.6
20
-32.67
11
226.6
21
-108.0100934
0
ARC
8
0
10
208.2571942
20
-134.9109326
40
2
50
244.9999983
51
328.7204708
0
ARC
8
0
10
190.6089434
20
-131.0949297
40
2
50
64.9999983
51
70.7560524
0
ARC
8
0
10
187.4063728
20
-129.9769215
40
2
50
70.7560524
51
75.0000021
0
ARC
8
0
10
172.9811741
20
-126.1117012
40
2
50
75.0000021
51
81.4007619
0
ARC
8
0
10
169.9811736
20
-125.6580347
40
2
50
81.4007619
51
85.0000024
0
ARC
8
0
10
152.4383958
20
-120.1079611
40
2
50
245.8477716
51
265.0000024
0
ARC
8
0
10
128.3721092
20
-113.7
40
2
50
65.8477716
51
90
0
ARC
8
0
10
89.7
20
-109.7
40
2
50
180
51
270
0
ARC
8
0
10
89.7
20
-39.3
40
2
50
90
51
180
0
ARC
8
0
10
105.9958372
20
-35.3
40
2
50
270
51
332.1027296
0
ARC
8
0
10
110.2041628
20
-35.9
40
2
50
90
51
152.1027296
0
ARC
8
0
10
123.7849698
20
-31.9
40
2
50
270
51
340.5599655
0
ARC
8
0
10
128.4150302
20
-30.8
40
2
50
90
51
160.5599655
0
ARC
8
0
10
141.7849698
20
-26.8
40
2
50
270
51
340.5599655
0
ARC
8
0
10
146.4150302
20
-25.7
40
2
50
90
51
160.5599655
0
ARC
8
0
10
161.5849698
20
-25.7
40
2
50
19.4400345
51
90
0
ARC
8
0
10
166.2150302
20
-26.8
40
2
50
199.4400345
51
270
0
ARC
8
0
10
180.1491402
20
-30.8
40
2
50
43.9072973
51
90
0
ARC
8
0
10
224.6
20
-32.67
40
2
50
0
51
90
0
ARC
8
0
10
224.6
20
-108.0100934
40
2
50
328.7204708
51
0
0
LINE
8
0
10
93.25
20
-108.25
11
106.75
21
-108.25
0
LINE
8
0
10
108.75
20
-106.25
11
108.75
21
-93.75
0
LINE
8
0
10
106.75
20
-91.75
11
93.25
21
-91.75
0
LINE
8
0
10
91.25
20
-93.75
11
91.25
21
-106.25
0
LINE
8
0
10
93.25
20
-91.25
11
106.75
21
-91.25
0
LINE
8
0
10
108.75
20
-89.25
11
108.75
21
-76.75
0
LINE
8
0
10
106.75
20
-74.75
11
93.25
21
-74.75
0
LINE
8
0
10
91.25
20
-76.75
11
91.25
21
-89.25
0
LINE
8
0
10
93.25
20
-74.25
11
106.75
21
-74.25
0
LINE
8
0
10
108.75
20
-72.25
11
108.75
21
-59.75
0
LINE
8
0
10
106.75
20
-57.75
11
93.25
21
-57.75
0
LINE
8
0
10
91.25
20
-59.75
11
91.25
21
-72.25
0
LINE
8
0
10
93.25
20
-57.25
11
106.75
21
-57.25
0
LINE
8
0
10
108.75
20
-55.25
11
108.75
21
-42.75
0
LINE
8
0
10
106.75
20
-40.75
11
93.25
21
-40.75
0
LINE
8
0
10
91.25
20
-42.75
11
91.25
21
-55.25
0
LINE
8
0
10
111.25
20
-104.85
11
124.75
21
-104.85
0
LINE
8
0
10
126.75
20
-102.85
11
126.75
21
-90.35
0
LINE
8
0
10
124.75
20
-88.35
11
111.25
21
-88.35
0
LINE
8
0
10
109.25
20
-90.35
11
109.25
21
-102.85
0
LINE
8
0
10
111.25
20
-87.85
11
124.75
21
-87.85
0
LINE
8
0
10
126.75
20
-85.85
11
126.75
21
-73.35
0
LINE
8
0
10
124.75
20
-71.35
11
111.25
21
-71.35
0
LINE
8
0
10
109.25
20
-73.35
11
109.25
21
-85.85
0
LINE
8
0
10
111.25
20
-70.85
11
124.75
21
-70.85
0
LINE
8
0
10
126.75
20
-68.85
11
126.75
21
-56.35
0
LINE
8
0
10
124.75
20
-54.35
11
111.25
21
-54.35
0
LINE
8
0
10
109.25
20
-56.35
11
109.25
21
-68.85
0
LINE
8
0
10
111.25
20
-53.85
11
124.75
21
-53.85
0
LINE
8
0
10
126.75
20
-51.85
11
126.75
21
-39.35
0
LINE
8
0
10
124.75
20
-37.35
11
111.25
21
-37.35
0
LINE
8
0
10
109.25
20
-39.35
11
109.25
21
-51.85
0
LINE
8
0
10
129.25
20
-99.75
11
142.75
21
-99.75
0
LINE
8
0
10
144.75
20
-97.75
11
144.75
21
-85.25
0
LINE
8
0
10
142.75
20
-83.25
11
129.25
21
-83.25
0
LINE
8
0
10
127.25
20
-85.25
11
127.25
21
-97.75
0
LINE
8
0
10
129.25
20
-82.75
11
142.75
21
-82.75
0
LINE
8
0
10
144.75
20
-80.75
11
144.75
21
-68.25
0
LINE
8
0
10
142.75
20
-66.25
11
129.25
21
-66.25
0
LINE
8
0
10
127.25
20
-68.25
11
127.25
21
-80.75
0
LINE
8
0
10
129.25
20
-65.75
11
142.75
21
-65.75
0
LINE
8
0
10
144.75
20
-63.75
11
144.75
21
-51.25
0
LINE
8
0
10
142.75
20
-49.25
11
129.25
21
-49.25
0
LINE
8
0
10
127.25
20
-51.25
11
127.25
21
-63.75
0
LINE
8
0
10
129.25
20
-48.75
11
142.75
21
-48.75
0
LINE
8
0
10
144.75
20
-46.75
11
144.75
21
-34.25
0
LINE
8
0
10
142.75
20
-32.25
11
129.25
21
-32.25
0
LINE
8
0
10
127.25
20
-34.25
11
127.25
21
-46.75
0
LINE
8
0
10
147.25
20
-94.65
11
160.75
21
-94.65
0
LINE
8
0
10
162.75
20
-92.65
11
162.75
21
-80.15
0
LINE
8
0
10
160.75
20
-78.15
11
147.25
21
-78.15
0
LINE
8
0
10
145.25
20
-80.15
11
145.25
21
-92.65
0
LINE
8
0
10
147.25
20
-77.65
11
160.75
21
-77.65
0
LINE
8
0
10
162.75
20
-75.65
11
162.75
21
-63.15
0
LINE
8
0
10
160.75
20
-61.15
11
147.25
21
-61.15
0
LINE
8
0
10
145.25
20
-63.15
11
145.25
21
-75.65
0
LINE
8
0
10
147.25
20
-60.65
11
160.75
21
-60.65
0
LINE
8
0
10
162.75
20
-58.65
11
162.75
21
-46.15
0
LINE
8
0
10
160.75
20
-44.15
11
147.25
21
-44.15
0
LINE
8
0
10
145.25
20
-46.15
11
145.25
21
-58.65
0
LINE
8
0
10
147.25
20
-43.65
11
160.75
21
-43.65
0
LINE
8
0
10
162.75
20
-41.65
11
162.75
21
-29.15
0
LINE
8
0
10
160.75
20
-27.15
11
147.25
21
-27.15
0
LINE
8
0
10
145.25
20
-29.15
11
145.25
21
-41.65
0
LINE
8
0
10
165.25
20
-99.75
11
178.75
21
-99.75
0
LINE
8
0
10
180.75
20
-97.75
11
180.75
21
-85.25
0
LINE
8
0
10
178.75
20
-83.25
11
165.25
21
-83.25
0
LINE
8
0
10
163.25
20
-85.25
11
163.25
21
-97.75
0
LINE
8
0
10
165.25
20
-82.75
11
178.75
21
-82.75
0
LINE
8
0
10
180.75
20
-80.75
11
180.75
21
-68.25
0
LINE
8
0
10
178.75
20
-66.25
11
165.25
21
-66.25
0
LINE
8
0
10
163.25
20
-68.25
11
163.25
21
-80.75
0
LINE
8
0
10
165.25
20
-65.75
11
178.75
21
-65.75
0
LINE
8
0
10
180.75
20
-63.75
11
180.75
21
-51.25
0
LINE
8
0
10
178.75
20
-49.25
11
165.25
21
-49.25
0
LINE
8
0
10
163.25
20
-51.25
11
163.25
21
-63.75
0
LINE
8
0
10
165.25
20
-48.75
11
178.75
21
-48.75
0
LINE
8
0
10
180.75
20
-46.75
11
180.75
21
-34.25
0
LINE
8
0
10
178.75
20
-32.25
11
165.25
21
-32.25
0
LINE
8
0
10
163.25
20
-34.25
11
163.25
21
-46.75
0
LINE
8
0
10
183.25
20
-101.62
11
196.75
21
-101.62
0
LINE
8
0
10
198.75
20
-99.62
11
198.75
21
-87.12
0
LINE
8
0
10
196.75
20
-85.12
11
183.25
21
-85.12
0
LINE
8
0
10
181.25
20
-87.12
11
181.25
21
-99.62
0
LINE
8
0
10
183.25
20
-84.62
11
196.75
21
-84.62
0
LINE
8
0
10
198.75
20
-82.62
11
198.75
21
-70.12
0
LINE
8
0
10
196.75
20
-68.12
11
183.25
21
-68.12
0
LINE
8
0
10
181.25
20
-70.12
11
181.25
21
-82.62
0
LINE
8
0
10
183.25
20
-67.62
11
196.75
21
-67.62
0
LINE
8
0
10
198.75
20
-65.62
11
198.75
21
-53.12
0
LINE
8
0
10
196.75
20
-51.12
11
183.25
21
-51.12
0
LINE
8
0
10
181.25
20
-53.12
11
181.25
21
-65.62
0
LINE
8
0
10
183.25
20
-50.62
11
196.75
21
-50.62
0
LINE
8
0
10
198.75
20
-48.62
11
198.75
21
-36.12
0
LINE
8
0
10
196.75
20
-34.12
11
183.25
21
-34.12
0
LINE
8
0
10
181.25
20
-36.12
11
181.25
21
-48.62
0
LINE
8
0
10
156.2632271
20
-118.9870518
11
169.7118555
21
-120.1636543
0
LINE
8
0
10
171.8785563
20
-118.3455763
11
172.9680031
21
-105.8931426
0
LINE
8
0
10
171.1499251
20
-103.7264418
11
157.7012967
21
-102.5498393
0
LINE
8
0
10
155.5345959
20
-104.3679173
11
154.4451491
21
-116.820351
0
LINE
8
0
10
175.0661178
20
-121.0281049
11
188.1061164
21
-124.522162
0
LINE
8
0
10
190.5556061
20
-123.1079483
11
193.7908441
21
-111.0338756
0
LINE
8
0
10
192.3766304
20
-108.5843859
11
179.3366318
21
-105.0903288
0
LINE
8
0
10
176.8871421
20
-106.5045425
11
173.6519041
21
-118.5786152
0
LINE
8
0
10
193.2289249
20
-126.3032376
11
205.4640801
21
-132.0085841
0
LINE
8
0
10
208.1219322
20
-131.0412051
11
213.4046604
21
-119.7123577
0
LINE
8
0
10
212.4372815
20
-117.0545056
11
200.2021263
21
-111.3491591
0
LINE
8
0
10
197.5442742
20
-112.3165381
11
192.261546
21
-123.6453855
0
ARC
8
0
10
106.75
20
-106.25
40
2
50
270
51
0
0
ARC
8
0
10
106.75
20
-93.75
40
2
50
0
51
90
0
ARC
8
0
10
93.25
20
-93.75
40
2
50
90
51
180
0
ARC
8
0
10
93.25
20
-106.25
40
2
50
180
51
270
0
ARC
8
0
10
106.75
20
-89.25
40
2
50
270
51
0
0
ARC
8
0
10
106.75
20
-76.75
40
2
50
0
51
90
0
ARC
8
0
10
93.25
20
-76.75
40
2
50
90
51
180
0
ARC
8
0
10
93.25
20
-89.25
40
2
50
180
51
270
0
ARC
8
0
10
106.75
20
-72.25
40
2
50
270
51
0
0
ARC
8
0
10
106.75
20
-59.75
40
2
50
0
51
90
0
ARC
8
0
10
93.25
20
-59.75
40
2
50
90
51
180
0
ARC
8
0
10
93.25
20
-72.25
40
2
50
180
51
270
0
ARC
8
0
10
106.75
20
-55.25
40
2
50
270
51
0
0
ARC
8
0
10
106.75
20
-42.75
40
2
50
0
51
90
0
ARC
8
0
10
93.25
20
-42.75
40
2
50
90
51
180
0
ARC
8
0
10
93.25
20
-55.25
40
2
50
180
51
270
0
ARC
8
0
10
124.75
20
-102.85
40
2
50
270
51
0
0
ARC
8
0
10
124.75
20
-90.35
40
2
50
0
51
90
0
ARC
8
0
10
111.25
20
-90.35
40
2
50
90
51
180
0
ARC
8
0
10
111.25
20
-102.85
40
2
50
180
51
270
0
ARC
8
0
10
124.75
20
-85.85
40
2
50
270
51
0
0
ARC
8
0
10
124.75
20
-73.35
40
2
50
0
51
90
0
ARC
8
0
10
111.25
20
-73.35
40
2
50
90
51
180
0
ARC
8
0
10
111.25
20
-85.85
40
2
50
180
51
270
0
ARC
8
0
10
124.75
20
-68.85
40
2
50
270
51
0
0
ARC
8
0
10
124.75
20
-56.35
40
2
50
0
51
90
0
ARC
8
0
10
111.25
20
-56.35
40
2
50
90
51
180
0
ARC
8
0
10
111.25
20
-68.85
40
2
50
180
51
270
0
ARC
8
0
10
124.75
20
-51.85
40
2
50
270
51
0
0
ARC
8
0
10
124.75
20
-39.35
40
2
50
0
51
90
0
ARC
8
0
10
111.25
20
-39.35
40
2
50
90
51
180
0
ARC
8
0
10
111.25
20
-51.85
40
2
50
180
51
270
0
ARC
8
0
10
142.75
20
-97.75
40
2
50
270
51
0
0
ARC
8
0
10
142.75
20
-85.25
40
2
50
0
51
90
0
ARC
8
0
10
129.25
20
-85.25
40
2
50
90
51
180
0
ARC
8
0
10
129.25
20
-97.75
40
2
50
180
51
270
0
ARC
8
0
10
142.75
20
-80.75
40
2
50
270
51
0
0
ARC
8
0
10
142.75
20
-68.25
40
2
50
0
51
90
0
ARC
8
0
10
129.25
20
-68.25
40
2
50
90
51
180
0
ARC
8
0
10
129.25
20
-80.75
40
2
50
180
51
270
0
ARC
8
0
10
142.75
20
-63.75
40
2
50
270
51
0
0
ARC
8
0
10
142.75
20
-51.25
40
2
50
0
51
90
0
ARC
8
0
10
129.25
20
-51.25
40
2
50
90
51
180
0
ARC
8
0
10
129.25
20
-63.75
40
2
50
180
51
270
0
ARC
8
0
10
142.75
20
-46.75
40
2
50
270
51
0
0
ARC
8
0
10
142.75
20
-34.25
40
2
50
0
51
90
0
ARC
8
0
10
129.25
20
-34.25
40
2
50
90
51
180
0
ARC
8
0
10
129.25
20
-46.75
40
2
50
180
51
270
0
ARC
8
0
10
160.75
20
-92.65
40
2
50
270
51
0
0
ARC
8
0
10
160.75
20
-80.15
40
2
50
0
51
90
0
ARC
8
0
10
147.25
20
-80.15
40
2
50
90
51
180
0
ARC
8
0
10
147.25
20
-92.65
40
2
50
180
51
270
0
ARC
8
0
10
160.75
20
-75.65
40
2
50
270
51
0
0
ARC
8
0
10
160.75
20
-63.15
40
2
50
0
51
90
0
ARC
8
0
10
147.25
20
-63.15
40
2
50
90
51
180
0
ARC
8
0
10
147.25
20
-75.65
40
2
50
180
51
270
0
ARC
8
0
10
160.75
20
-58.65
40
2
50
270
51
0
0
ARC
8
0
10
160.75
20
-46.15
40
2
50
0
51
90
0
ARC
8
0
10
147.25
20
-46.15
40
2
50
90
51
180
0
ARC
8
0
10
147.25
20
-58.65
40
2
50
180
51
270
0
ARC
8
0
10
160.75
20
-41.65
40
2
50
270
51
0
0
ARC
8
0
10
160.75
20
-29.15
40
2
50
0
51
90
0
ARC
8
0
10
147.25
20
-29.15
40
2
50
90
51
180
0
ARC
8
0
10
147.25
20
-41.65
40
2
50
180
51
270
0
ARC
8
0
10
178.75
20
-97.75
40
2
50
270
51
0
0
ARC
8
0
10
178.75
20
-85.25
40
2
50
0
51
90
0
ARC
8
0
10
165.25
20
-85.25
40
2
50
90
51
180
0
ARC
8
0
10
165.25
20
-97.75
40
2
50
180
51
270
0
ARC
8
0
10
178.75
20
-80.75
40
2
50
270
51
0
0
ARC
8
0
10
178.75
20
-68.25
40
2
50
0
51
90
0
ARC
8
0
10
165.25
20
-68.25
40
2
50
90
51
180
0
ARC
8
0
10
165.25
20
-80.75
40
2
50
180
51
270
0
ARC
8
0
10
178.75
20
-63.75
40
2
50
270
51
0
0
ARC
8
0
10
178.75
20
-51.25
40
2
50
0
51
90
0
ARC
8
0
10
165.25
20
-51.25
40
2
50
90
51
180
0
ARC
8
0
10
165.25
20
-63.75
40
2
50
180
51
270
0
ARC
8
0
10
178.75
20
-46.75
40
2
50
270
51
0
0
ARC
8
0
10
178.75
20
-34.25
40
2
50
0
51
90
0
ARC
8
0
10
165.25
20
-34.25
40
2
50
90
51
180
0
ARC
8
0
10
165.25
20
-46.75
40
2
50
180
51
270
0
ARC
8
0
10
196.75
20
-99.62
40
2
50
270
51
0
0
ARC
8
0
10
196.75
20
-87.12
40
2
50
0
51
90
0
ARC
8
0
10
183.25
20
-87.12
40
2
50
90
51
180
0
ARC
8
0
10
183.25
20
-99.62
40
2
50
180
51
270
0
ARC
8
0
10
196.75
20
-82.62
40
2
50
270
51
0
0
ARC
8
0
10
196.75
20
-70.12
40
2
50
0
51
90
0
ARC
8
0
10
183.25
20
-70.12
40
2
50
90
51
180
0
ARC
8
0
10
183.25
20
-82.62
40
2
50
180
51
270
0
ARC
8
0
10
196.75
20
-65.62
40
2
50
270
51
0
0
ARC
8
0
10
196.75
20
-53.12
40
2
50
0
51
90
0
ARC
8
0
10
183.25
20
-53.12
40
2
50
90
51
180
0
ARC
8
0
10
183.25
20
-65.62
40
2
50
180
51
270
0
ARC
8
0
10
196.75
20
-48.62
40
2
50
270
51
0
0
ARC
8
0
10
196.75
20
-36.12
40
2
50
0
51
90
0
ARC
8
0
10
183.25
20
-36.12
40
2
50
90
51
180
0
ARC
8
0
10
183.25
20
-48.62
40
2
50
180
51
270
0
ARC
8
0
10
188.6237544
20
-122.5903103
40
2
50
255.0000021
51
345.0000021
0
ARC
8
0
10
191.8589924
20
-110.5162376
40
2
50
345.0000021
51
75.0000021
0
ARC
8
0
10
178.8189938
20
-107.0221805
40
2
50
75.0000021
51
165.0000021
0
ARC
8
0
10
175.5837558
20
-119.0962532
40
2
50
165.0000021
51
255.0000021
0
ARC
8
0
10
206.3093166
20
-130.1959685
40
2
50
244.9999983
51
334.9999983
0
ARC
8
0
10
211.5920449
20
-118.8671212
40
2
50
334.9999983
51
64.9999983
0
ARC
8
0
10
199.3568898
20
-113.1617747
40
2
50
64.9999983
51
154.9999983
0
ARC
8
0
10
194.0741615
20
-124.490622
40
2
50
154.9999983
51
244.9999983
0
ARC
8
0
10
169.8861669
20
-118.1712649
40
2
50
265.0000024
51
355.0000024
0
ARC
8
0
10
170.9756137
20
-105.7188312
40
2
50
355.0000024
51
85.0000024
0
ARC
8
0
10
157.5269853
20
-104.5422287
40
2
50
85.0000024
51
175.0000024
0
ARC
8
0
10
156.4375385
20
-116.9946624
40
2
50
175.0000024
51
265.0000024
0
ENDSEC
0
EOF